<svg width="512" height="512" xmlns="http://www.w3.org/2000/svg">
  <defs>
    <filter id="gl" x="-30%" y="-30%" width="160%" height="160%">
      <feGaussianBlur stdDeviation="12" result="b"/>
      <feMerge><feMergeNode in="b"/><feMergeNode in="SourceGraphic"/></feMerge>
    </filter>
    <clipPath id="c"><rect width="512" height="512" rx="116"/></clipPath>
    <style>@import url('https://fonts.googleapis.com/css2?family=Nanum+Brush+Script&amp;display=swap');</style>
  </defs>
  <g clip-path="url(#c)">
    <rect width="512" height="512" fill="#5BA8D8"/>
    <ellipse cx="414" cy="48" rx="48" ry="19" fill="rgba(255,255,255,0.75)"/>
    <ellipse cx="448" cy="40" rx="29" ry="16" fill="rgba(255,255,255,0.75)"/>
    <polygon points="192,75 256,155 128,155" fill="#E8EEF2"/>
    <polygon points="192,102 240,155 144,155" fill="#D0DCE4"/>
    <polygon points="80,120 139,192 21,192" fill="#C8D8E0"/>
    <polygon points="80,139 128,192 32,192" fill="#B8CED8"/>
    <polygon points="374,101 432,174 316,174" fill="#D4E0E8"/>
    <polygon points="421,80 475,155 368,155" fill="#E0EAF0"/>
    <polygon points="421,107 464,155 378,155" fill="#CCD8E4"/>
    <polygon points="53,192 147,147 240,192 187,254 13,254" fill="#4A5E6E"/>
    <polygon points="227,174 294,128 374,174 334,240 187,240" fill="#3D5260"/>
    <polygon points="341,166 413,120 485,166 453,235 307,235" fill="#445A6A"/>
    <ellipse cx="387" cy="240" rx="67" ry="40" fill="#5A8A48"/>
    <ellipse cx="440" cy="254" rx="48" ry="32" fill="#6A9A54"/>
    <rect x="395" y="227" width="13" height="16" fill="rgba(255,255,255,0.6)"/>
    <rect x="422" y="235" width="11" height="13" fill="rgba(255,255,255,0.5)"/>
    <ellipse cx="256" cy="341" rx="280" ry="101" fill="#4A90B8"/>
    <rect y="307" width="512" height="101" fill="#4A90B8"/>
    <ellipse cx="256" cy="341" rx="213" ry="59" fill="#5AA0C8" opacity="0.5"/>
    <path d="M80 320 Q160 307 240 320 Q320 333 400 320" fill="none" stroke="rgba(255,255,255,0.25)" stroke-width="4"/>
    <path d="M53 347 Q147 331 227 347 Q307 363 395 347" fill="none" stroke="rgba(255,255,255,0.18)" stroke-width="2.5"/>
    <polygon points="192,341 229,315 155,315" fill="rgba(70,90,110,0.4)"/>
    <polygon points="256,341 299,307 213,307" fill="rgba(60,80,100,0.35)"/>
    <rect x="48" y="288" width="11" height="43" fill="#2D4A2A"/>
    <ellipse cx="53" cy="283" rx="21" ry="27" fill="#3A5E34"/>
    <rect x="93" y="294" width="8" height="37" fill="#2D4A2A"/>
    <ellipse cx="96" cy="288" rx="16" ry="21" fill="#3A5E34"/>
    <rect x="413" y="288" width="8" height="37" fill="#2D4A2A"/>
    <ellipse cx="416" cy="283" rx="16" ry="24" fill="#3A5E34"/>
    <rect x="448" y="294" width="8" height="32" fill="#2D4A2A"/>
    <ellipse cx="451" cy="288" rx="13" ry="19" fill="#3A5E34"/>
    <ellipse cx="160" cy="467" rx="267" ry="133" fill="#5CAD3C"/>
    <rect y="413" width="512" height="99" fill="#5CAD3C"/>
    <ellipse cx="213" cy="453" rx="187" ry="80" fill="#6BBF48" opacity="0.6"/>
    <rect x="59" y="347" width="13" height="80" fill="#3D2A1A"/>
    <ellipse cx="64" cy="341" rx="37" ry="43" fill="#4A7A38"/>
    <ellipse cx="48" cy="358" rx="24" ry="32" fill="#3D6830" opacity="0.8"/>
    <rect x="395" y="368" width="11" height="59" fill="#3D2A1A"/>
    <ellipse cx="400" cy="363" rx="27" ry="32" fill="#4A7A38"/>
    <ellipse cx="288" cy="440" rx="27" ry="16" fill="#C8A882"/>
    <rect x="267" y="435" width="43" height="13" rx="5" fill="#C8A882"/>
    <rect x="272" y="448" width="8" height="13" fill="#A89068"/>
    <rect x="293" y="448" width="8" height="13" fill="#A89068"/>
    <ellipse cx="309" cy="430" rx="13" ry="11" fill="#C8A882"/>
    <ellipse cx="317" cy="424" rx="5" ry="4" fill="#D4B890"/>
    <ellipse cx="283" cy="435" rx="8" ry="5" fill="#8B6040" opacity="0.6"/>
  </g>
  <rect x="10" y="10" width="492" height="492" rx="108" fill="none" stroke="rgba(255,255,255,0.42)" stroke-width="18" filter="url(#gl)"/>
  <rect x="24" y="24" width="464" height="464" rx="98" fill="none" stroke="rgba(255,255,255,0.20)" stroke-width="3"/>
  <text x="256" y="462"
        font-family="'Nanum Brush Script',cursive"
        font-size="85" fill="white" text-anchor="middle"
        style="filter:drop-shadow(0 4px 18px rgba(0,0,0,0.6))">건강한 나</text>
</svg>
