<svg width="192" height="192" xmlns="http://www.w3.org/2000/svg">
  <defs>
    <filter id="gl" x="-30%" y="-30%" width="160%" height="160%">
      <feGaussianBlur stdDeviation="4.5" result="b"/>
      <feMerge><feMergeNode in="b"/><feMergeNode in="SourceGraphic"/></feMerge>
    </filter>
    <filter id="ts">
      <feDropShadow dx="0" dy="2" stdDeviation="3" flood-color="rgba(0,0,0,0.6)"/>
    </filter>
    <clipPath id="c"><rect width="192" height="192" rx="44"/></clipPath>
  </defs>
  <g clip-path="url(#c)">
    <!-- 하늘 -->
    <rect width="192" height="192" fill="#5BA8D8"/>
    <!-- 하늘 그라디언트 느낌 -->
    <rect width="192" height="110" fill="#7DC4E8" opacity="0.5"/>
    <!-- 구름 -->
    <ellipse cx="48" cy="28" rx="28" ry="11" fill="rgba(255,255,255,0.88)"/>
    <ellipse cx="66" cy="22" rx="18" ry="10" fill="rgba(255,255,255,0.88)"/>
    <ellipse cx="34" cy="25" rx="14" ry="8" fill="rgba(255,255,255,0.78)"/>
    <ellipse cx="155" cy="20" rx="16" ry="7" fill="rgba(255,255,255,0.70)"/>
    <ellipse cx="168" cy="16" rx="10" ry="6" fill="rgba(255,255,255,0.70)"/>
    <!-- 뒷 눈산 (왼쪽) -->
    <polygon points="28,72 52,32 76,72" fill="#E2ECF5"/>
    <polygon points="28,72 46,45 60,72" fill="#D0DFE8"/>
    <!-- 뒷 눈산 (중앙 큰 것) -->
    <polygon points="60,80 96,18 132,80" fill="#EDF3F8"/>
    <polygon points="76,80 96,30 116,80" fill="#DCE8F0"/>
    <!-- 뒷 눈산 (오른쪽) -->
    <polygon points="124,72 152,28 178,72" fill="#E4EDF5"/>
    <polygon points="138,72 155,40 170,72" fill="#D4E2EC"/>
    <!-- 암벽 중간 -->
    <polygon points="10,95 52,60 92,95 72,115 0,115" fill="#4A5E6E"/>
    <polygon points="80,90 118,52 155,90 138,112 65,112" fill="#3D5260"/>
    <polygon points="130,88 162,55 192,88 192,112 112,112" fill="#455A68"/>
    <!-- 오른쪽 초록 언덕 -->
    <ellipse cx="168" cy="98" rx="28" ry="16" fill="#5A8A48"/>
    <ellipse cx="182" cy="104" rx="18" ry="12" fill="#6A9A54"/>
    <!-- 호수 -->
    <rect y="112" width="192" height="42" fill="#4A8FB8"/>
    <ellipse cx="96" cy="118" rx="105" ry="20" fill="#5AA0C8" opacity="0.6"/>
    <!-- 호수 반짝임 -->
    <path d="M22 122 Q55 116 88 122 Q121 128 155 122" fill="none" stroke="rgba(255,255,255,0.30)" stroke-width="1.5" stroke-linecap="round"/>
    <path d="M30 132 Q65 126 98 132 Q131 138 162 132" fill="none" stroke="rgba(255,255,255,0.20)" stroke-width="1" stroke-linecap="round"/>
    <!-- 산 반영 -->
    <polygon points="68,130 82,120 56,120" fill="rgba(60,80,100,0.30)"/>
    <polygon points="96,132 112,116 80,116" fill="rgba(50,70,95,0.28)"/>
    <!-- 호숫가 나무들 -->
    <rect x="16" y="106" width="4" height="18" fill="#2A4228"/>
    <ellipse cx="18" cy="104" rx="9" ry="11" fill="#385830"/>
    <rect x="34" y="108" width="3" height="14" fill="#2A4228"/>
    <ellipse cx="35" cy="106" rx="7" ry="9" fill="#385830"/>
    <rect x="155" y="108" width="3" height="14" fill="#2A4228"/>
    <ellipse cx="156" cy="106" rx="7" ry="9" fill="#385830"/>
    <rect x="170" y="110" width="3" height="12" fill="#2A4228"/>
    <ellipse cx="171" cy="108" rx="5" ry="7" fill="#385830"/>
    <!-- 앞 초록 잔디 언덕 -->
    <ellipse cx="70" cy="178" rx="110" ry="52" fill="#58A83A"/>
    <rect y="158" width="192" height="34" fill="#58A83A"/>
    <ellipse cx="90" cy="172" rx="75" ry="28" fill="#6ABF45" opacity="0.55"/>
    <!-- 앞 큰 나무 (왼쪽) -->
    <rect x="20" y="132" width="5" height="30" fill="#3A2418"/>
    <ellipse cx="22" cy="130" rx="14" ry="17" fill="#478035"/>
    <ellipse cx="15" cy="137" rx="9" ry="12" fill="#3A6A2A" opacity="0.8"/>
    <!-- 오른쪽 작은 나무 -->
    <rect x="148" y="140" width="4" height="22" fill="#3A2418"/>
    <ellipse cx="150" cy="138" rx="10" ry="12" fill="#478035"/>
    <!-- 소 🐄 -->
    <ellipse cx="108" cy="168" rx="11" ry="6" fill="#C8A882"/>
    <rect x="99" y="165" width="18" height="6" rx="3" fill="#C8A882"/>
    <rect x="101" y="170" width="3" height="6" fill="#A89068"/>
    <rect x="112" y="170" width="3" height="6" fill="#A89068"/>
    <ellipse cx="117" cy="163" rx="5" ry="4" fill="#C8A882"/>
    <ellipse cx="120" cy="161" rx="2" ry="1.5" fill="#D4B890"/>
    <ellipse cx="106" cy="165" rx="3" ry="2" fill="#7A5030" opacity="0.55"/>
  </g>
  <!-- 빛나는 하얀 테두리 -->
  <rect x="4" y="4" width="184" height="184" rx="41" fill="none" stroke="rgba(255,255,255,0.45)" stroke-width="7" filter="url(#gl)"/>
  <rect x="9" y="9" width="174" height="174" rx="37" fill="none" stroke="rgba(255,255,255,0.22)" stroke-width="1.2"/>
  <!-- 텍스트: Nanum Brush Script 로드 -->
  <defs>
    <style>@import url('https://fonts.googleapis.com/css2?family=Nanum+Brush+Script&amp;display=swap');</style>
  </defs>
  <text x="96" y="178"
        font-family="'Nanum Brush Script', cursive"
        font-size="30" fill="white" text-anchor="middle"
        filter="url(#ts)">건강한 나</text>
</svg>
