<svg width="192" height="192" xmlns="http://www.w3.org/2000/svg">
  <defs>
    <filter id="gl" x="-30%" y="-30%" width="160%" height="160%">
      <feGaussianBlur stdDeviation="4.5" result="b"/>
      <feMerge><feMergeNode in="b"/><feMergeNode in="SourceGraphic"/></feMerge>
    </filter>
    <clipPath id="c"><rect width="192" height="192" rx="44"/></clipPath>
    <style>@import url('https://fonts.googleapis.com/css2?family=Nanum+Brush+Script&amp;display=swap');</style>
  </defs>
  <g clip-path="url(#c)">
    <rect width="192" height="192" fill="#5BA8D8"/>
    <ellipse cx="155" cy="18" rx="18" ry="7" fill="rgba(255,255,255,0.75)"/>
    <ellipse cx="168" cy="15" rx="11" ry="6" fill="rgba(255,255,255,0.75)"/>
    <polygon points="72,28 96,58 48,58" fill="#E8EEF2"/>
    <polygon points="72,38 90,58 54,58" fill="#D0DCE4"/>
    <polygon points="30,45 52,72 8,72" fill="#C8D8E0"/>
    <polygon points="30,52 48,72 12,72" fill="#B8CED8"/>
    <polygon points="140,38 162,65 118,65" fill="#D4E0E8"/>
    <polygon points="158,30 178,58 138,58" fill="#E0EAF0"/>
    <polygon points="158,40 174,58 142,58" fill="#CCD8E4"/>
    <polygon points="20,72 55,55 90,72 70,95 5,95" fill="#4A5E6E"/>
    <polygon points="85,65 110,48 140,65 125,90 70,90" fill="#3D5260"/>
    <polygon points="128,62 155,45 182,62 170,88 115,88" fill="#445A6A"/>
    <ellipse cx="145" cy="90" rx="25" ry="15" fill="#5A8A48"/>
    <ellipse cx="165" cy="95" rx="18" ry="12" fill="#6A9A54"/>
    <rect x="148" y="85" width="5" height="6" fill="rgba(255,255,255,0.6)"/>
    <rect x="158" y="88" width="4" height="5" fill="rgba(255,255,255,0.5)"/>
    <ellipse cx="96" cy="128" rx="105" ry="38" fill="#4A90B8"/>
    <rect y="115" width="192" height="38" fill="#4A90B8"/>
    <ellipse cx="96" cy="128" rx="80" ry="22" fill="#5AA0C8" opacity="0.5"/>
    <path d="M30 120 Q60 115 90 120 Q120 125 150 120" fill="none" stroke="rgba(255,255,255,0.25)" stroke-width="1.5"/>
    <path d="M20 130 Q55 124 85 130 Q115 136 148 130" fill="none" stroke="rgba(255,255,255,0.18)" stroke-width="1"/>
    <polygon points="72,128 86,118 58,118" fill="rgba(70,90,110,0.4)"/>
    <polygon points="96,128 112,115 80,115" fill="rgba(60,80,100,0.35)"/>
    <rect x="18" y="108" width="4" height="16" fill="#2D4A2A"/>
    <ellipse cx="20" cy="106" rx="8" ry="10" fill="#3A5E34"/>
    <rect x="35" y="110" width="3" height="14" fill="#2D4A2A"/>
    <ellipse cx="36" cy="108" rx="6" ry="8" fill="#3A5E34"/>
    <rect x="155" y="108" width="3" height="14" fill="#2D4A2A"/>
    <ellipse cx="156" cy="106" rx="6" ry="9" fill="#3A5E34"/>
    <rect x="168" y="110" width="3" height="12" fill="#2D4A2A"/>
    <ellipse cx="169" cy="108" rx="5" ry="7" fill="#3A5E34"/>
    <ellipse cx="60" cy="175" rx="100" ry="50" fill="#5CAD3C"/>
    <rect y="155" width="192" height="37" fill="#5CAD3C"/>
    <ellipse cx="80" cy="170" rx="70" ry="30" fill="#6BBF48" opacity="0.6"/>
    <rect x="22" y="130" width="5" height="30" fill="#3D2A1A"/>
    <ellipse cx="24" cy="128" rx="14" ry="16" fill="#4A7A38"/>
    <ellipse cx="18" cy="134" rx="9" ry="12" fill="#3D6830" opacity="0.8"/>
    <rect x="148" y="138" width="4" height="22" fill="#3D2A1A"/>
    <ellipse cx="150" cy="136" rx="10" ry="12" fill="#4A7A38"/>
    <ellipse cx="108" cy="165" rx="10" ry="6" fill="#C8A882"/>
    <rect x="100" y="163" width="16" height="5" rx="2" fill="#C8A882"/>
    <rect x="102" y="168" width="3" height="5" fill="#A89068"/>
    <rect x="110" y="168" width="3" height="5" fill="#A89068"/>
    <ellipse cx="116" cy="161" rx="5" ry="4" fill="#C8A882"/>
    <ellipse cx="119" cy="159" rx="2" ry="1.5" fill="#D4B890"/>
    <ellipse cx="106" cy="163" rx="3" ry="2" fill="#8B6040" opacity="0.6"/>
  </g>
  <rect x="4" y="4" width="184" height="184" rx="41" fill="none" stroke="rgba(255,255,255,0.42)" stroke-width="7" filter="url(#gl)"/>
  <rect x="9" y="9" width="174" height="174" rx="37" fill="none" stroke="rgba(255,255,255,0.20)" stroke-width="1.2"/>
  <text x="96" y="172"
        font-family="'Nanum Brush Script',cursive"
        font-size="32" fill="white" text-anchor="middle"
        style="filter:drop-shadow(0 2px 8px rgba(0,0,0,0.6))">건강한 나</text>
</svg>
