<svg width="512" height="512" xmlns="http://www.w3.org/2000/svg">
  <defs>
    <filter id="gl" x="-30%" y="-30%" width="160%" height="160%">
      <feGaussianBlur stdDeviation="12" result="b"/>
      <feMerge><feMergeNode in="b"/><feMergeNode in="SourceGraphic"/></feMerge>
    </filter>
    <filter id="ts">
      <feDropShadow dx="0" dy="4" stdDeviation="8" flood-color="rgba(0,0,0,0.6)"/>
    </filter>
    <clipPath id="c"><rect width="512" height="512" rx="116"/></clipPath>
    <style>@import url('https://fonts.googleapis.com/css2?family=Nanum+Brush+Script&amp;display=swap');</style>
  </defs>
  <g clip-path="url(#c)">
    <rect width="512" height="512" fill="#5BA8D8"/>
    <rect width="512" height="295" fill="#7DC4E8" opacity="0.5"/>
    <ellipse cx="128" cy="75" rx="75" ry="29" fill="rgba(255,255,255,0.88)"/>
    <ellipse cx="176" cy="59" rx="48" ry="27" fill="rgba(255,255,255,0.88)"/>
    <ellipse cx="91" cy="67" rx="37" ry="21" fill="rgba(255,255,255,0.78)"/>
    <ellipse cx="414" cy="53" rx="43" ry="19" fill="rgba(255,255,255,0.70)"/>
    <ellipse cx="448" cy="43" rx="27" ry="16" fill="rgba(255,255,255,0.70)"/>
    <polygon points="75,192 139,85 203,192" fill="#E2ECF5"/>
    <polygon points="75,192 123,120 160,192" fill="#D0DFE8"/>
    <polygon points="160,213 256,48 352,213" fill="#EDF3F8"/>
    <polygon points="203,213 256,80 309,213" fill="#DCE8F0"/>
    <polygon points="331,192 406,75 475,192" fill="#E4EDF5"/>
    <polygon points="368,192 413,107 453,192" fill="#D4E2EC"/>
    <polygon points="27,254 139,160 245,254 192,307 0,307" fill="#4A5E6E"/>
    <polygon points="213,240 315,139 413,240 368,299 173,299" fill="#3D5260"/>
    <polygon points="347,235 432,147 512,235 512,299 299,299" fill="#455A68"/>
    <ellipse cx="448" cy="262" rx="75" ry="43" fill="#5A8A48"/>
    <ellipse cx="486" cy="278" rx="48" ry="32" fill="#6A9A54"/>
    <rect y="299" width="512" height="112" fill="#4A8FB8"/>
    <ellipse cx="256" cy="315" rx="280" ry="53" fill="#5AA0C8" opacity="0.6"/>
    <path d="M59 325 Q147 309 235 325 Q323 341 413 325" fill="none" stroke="rgba(255,255,255,0.30)" stroke-width="4" stroke-linecap="round"/>
    <path d="M80 352 Q173 336 261 352 Q349 368 432 352" fill="none" stroke="rgba(255,255,255,0.20)" stroke-width="2.5" stroke-linecap="round"/>
    <polygon points="181,347 219,320 149,320" fill="rgba(60,80,100,0.30)"/>
    <polygon points="256,352 299,309 213,309" fill="rgba(50,70,95,0.28)"/>
    <rect x="43" y="283" width="11" height="48" fill="#2A4228"/>
    <ellipse cx="48" cy="277" rx="24" ry="29" fill="#385830"/>
    <rect x="91" y="288" width="8" height="37" fill="#2A4228"/>
    <ellipse cx="93" cy="283" rx="19" ry="24" fill="#385830"/>
    <rect x="413" y="288" width="8" height="37" fill="#2A4228"/>
    <ellipse cx="416" cy="283" rx="19" ry="24" fill="#385830"/>
    <rect x="453" y="294" width="8" height="32" fill="#2A4228"/>
    <ellipse cx="456" cy="288" rx="13" ry="19" fill="#385830"/>
    <ellipse cx="187" cy="475" rx="293" ry="139" fill="#58A83A"/>
    <rect y="421" width="512" height="91" fill="#58A83A"/>
    <ellipse cx="240" cy="459" rx="200" ry="75" fill="#6ABF45" opacity="0.55"/>
    <rect x="53" y="352" width="13" height="80" fill="#3A2418"/>
    <ellipse cx="59" cy="347" rx="37" ry="45" fill="#478035"/>
    <ellipse cx="40" cy="368" rx="24" ry="32" fill="#3A6A2A" opacity="0.8"/>
    <rect x="395" y="373" width="11" height="59" fill="#3A2418"/>
    <ellipse cx="400" cy="368" rx="27" ry="32" fill="#478035"/>
    <ellipse cx="288" cy="448" rx="29" ry="16" fill="#C8A882"/>
    <rect x="264" y="437" width="48" height="16" rx="8" fill="#C8A882"/>
    <rect x="269" y="453" width="8" height="16" fill="#A89068"/>
    <rect x="299" y="453" width="8" height="16" fill="#A89068"/>
    <ellipse cx="312" cy="432" rx="13" ry="11" fill="#C8A882"/>
    <ellipse cx="320" cy="427" rx="5" ry="4" fill="#D4B890"/>
    <ellipse cx="283" cy="440" rx="8" ry="5" fill="#7A5030" opacity="0.55"/>
  </g>
  <rect x="10" y="10" width="492" height="492" rx="108" fill="none" stroke="rgba(255,255,255,0.45)" stroke-width="18" filter="url(#gl)"/>
  <rect x="24" y="24" width="464" height="464" rx="98" fill="none" stroke="rgba(255,255,255,0.22)" stroke-width="3"/>
  <text x="256" y="476"
        font-family="'Nanum Brush Script', cursive"
        font-size="80" fill="white" text-anchor="middle"
        filter="url(#ts)">건강한 나</text>
</svg>
